HIERARCHY
ROOT Hips
{
  OFFSET 0.000000 95.000000 0.000000
  CHANNELS 6 Xposition Yposition Zposition Zrotation Xrotation Yrotation
  JOINT Spine
  {
    OFFSET 0.000000 10.000000 0.000000
    CHANNELS 3 Zrotation Xrotation Yrotation
    JOINT Spine1
    {
      OFFSET 0.000000 12.000000 0.000000
      CHANNELS 3 Zrotation Xrotation Yrotation
      JOINT Spine2
      {
        OFFSET 0.000000 12.000000 0.000000
        CHANNELS 3 Zrotation Xrotation Yrotation
        JOINT Neck
        {
          OFFSET 0.000000 10.000000 0.000000
          CHANNELS 3 Zrotation Xrotation Yrotation
          JOINT Head
          {
            OFFSET 0.000000 8.000000 0.000000
            CHANNELS 3 Zrotation Xrotation Yrotation
            End Site
            {
              OFFSET 0.000000 10.000000 0.000000
            }
          }
        }
        JOINT LeftShoulder
        {
          OFFSET 6.000000 8.000000 0.000000
          CHANNELS 3 Zrotation Xrotation Yrotation
          JOINT LeftArm
          {
            OFFSET 12.000000 0.000000 0.000000
            CHANNELS 3 Zrotation Xrotation Yrotation
            JOINT LeftForeArm
            {
              OFFSET 24.000000 0.000000 0.000000
              CHANNELS 3 Zrotation Xrotation Yrotation
              JOINT LeftHand
              {
                OFFSET 22.000000 0.000000 0.000000
                CHANNELS 3 Zrotation Xrotation Yrotation
                JOINT LeftHandThumb1
                {
                  OFFSET 1.800000 -1.400000 0.500000
                  CHANNELS 3 Zrotation Xrotation Yrotation
                  JOINT LeftHandThumb2
                  {
                    OFFSET 2.400000 0.000000 0.000000
                    CHANNELS 3 Zrotation Xrotation Yrotation
                    JOINT LeftHandThumb3
                    {
                      OFFSET 1.900000 0.000000 0.000000
                      CHANNELS 3 Zrotation Xrotation Yrotation
                      End Site
                      {
                        OFFSET 1.600000 0.000000 0.000000
                      }
                    }
                  }
                }
                JOINT LeftHandIndex1
                {
                  OFFSET 6.600000 1.200000 0.300000
                  CHANNELS 3 Zrotation Xrotation Yrotation
                  JOINT LeftHandIndex2
                  {
                    OFFSET 2.000000 0.000000 0.000000
                    CHANNELS 3 Zrotation Xrotation Yrotation
                    JOINT LeftHandIndex3
                    {
                      OFFSET 1.200000 0.000000 0.000000
                      CHANNELS 3 Zrotation Xrotation Yrotation
                      End Site
                      {
                        OFFSET 1.000000 0.000000 0.000000
                      }
                    }
                  }
                }
                JOINT LeftHandMiddle1
                {
                  OFFSET 7.200000 0.000000 0.300000
                  CHANNELS 3 Zrotation Xrotation Yrotation
                  JOINT LeftHandMiddle2
                  {
                    OFFSET 3.000000 0.000000 0.000000
                    CHANNELS 3 Zrotation Xrotation Yrotation
                    JOINT LeftHandMiddle3
                    {
                      OFFSET 2.000000 0.000000 0.000000
                      CHANNELS 3 Zrotation Xrotation Yrotation
                      End Site
                      {
                        OFFSET 1.600000 0.000000 0.000000
                      }
                    }
                  }
                }
                JOINT LeftHandRing1
                {
                  OFFSET 7.100000 -1.000000 0.400000
                  CHANNELS 3 Zrotation Xrotation Yrotation
                  JOINT LeftHandRing2
                  {
                    OFFSET 2.600000 0.000000 0.000000
                    CHANNELS 3 Zrotation Xrotation Yrotation
                    JOINT LeftHandRing3
                    {
                      OFFSET 1.600000 0.000000 0.000000
                      CHANNELS 3 Zrotation Xrotation Yrotation
                      End Site
                      {
                        OFFSET 1.300000 0.000000 0.000000
                      }
                    }
                  }
                }
                JOINT LeftHandPinky1
                {
                  OFFSET 6.500000 -2.000000 0.500000
                  CHANNELS 3 Zrotation Xrotation Yrotation
                  JOINT LeftHandPinky2
                  {
                    OFFSET 1.900000 0.000000 0.000000
                    CHANNELS 3 Zrotation Xrotation Yrotation
                    JOINT LeftHandPinky3
                    {
                      OFFSET 1.400000 0.000000 0.000000
                      CHANNELS 3 Zrotation Xrotation Yrotation
                      End Site
                      {
                        OFFSET 1.300000 0.000000 0.000000
                      }
                    }
                  }
                }
              }
            }
          }
        }
        JOINT RightShoulder
        {
          OFFSET -6.000000 8.000000 0.000000
          CHANNELS 3 Zrotation Xrotation Yrotation
          JOINT RightArm
          {
            OFFSET -12.000000 0.000000 0.000000
            CHANNELS 3 Zrotation Xrotation Yrotation
            JOINT RightForeArm
            {
              OFFSET -24.000000 0.000000 0.000000
              CHANNELS 3 Zrotation Xrotation Yrotation
              JOINT RightHand
              {
                OFFSET -22.000000 0.000000 0.000000
                CHANNELS 3 Zrotation Xrotation Yrotation
                JOINT RightHandThumb1
                {
                  OFFSET -1.800000 -1.400000 0.500000
                  CHANNELS 3 Zrotation Xrotation Yrotation
                  JOINT RightHandThumb2
                  {
                    OFFSET -2.400000 0.000000 0.000000
                    CHANNELS 3 Zrotation Xrotation Yrotation
                    JOINT RightHandThumb3
                    {
                      OFFSET -1.900000 0.000000 0.000000
                      CHANNELS 3 Zrotation Xrotation Yrotation
                      End Site
                      {
                        OFFSET -1.600000 0.000000 0.000000
                      }
                    }
                  }
                }
                JOINT RightHandIndex1
                {
                  OFFSET -6.600000 1.200000 0.300000
                  CHANNELS 3 Zrotation Xrotation Yrotation
                  JOINT RightHandIndex2
                  {
                    OFFSET -2.000000 0.000000 0.000000
                    CHANNELS 3 Zrotation Xrotation Yrotation
                    JOINT RightHandIndex3
                    {
                      OFFSET -1.200000 0.000000 0.000000
                      CHANNELS 3 Zrotation Xrotation Yrotation
                      End Site
                      {
                        OFFSET -1.000000 0.000000 0.000000
                      }
                    }
                  }
                }
                JOINT RightHandMiddle1
                {
                  OFFSET -7.200000 0.000000 0.300000
                  CHANNELS 3 Zrotation Xrotation Yrotation
                  JOINT RightHandMiddle2
                  {
                    OFFSET -3.000000 0.000000 0.000000
                    CHANNELS 3 Zrotation Xrotation Yrotation
                    JOINT RightHandMiddle3
                    {
                      OFFSET -2.000000 0.000000 0.000000
                      CHANNELS 3 Zrotation Xrotation Yrotation
                      End Site
                      {
                        OFFSET -1.600000 0.000000 0.000000
                      }
                    }
                  }
                }
                JOINT RightHandRing1
                {
                  OFFSET -7.100000 -1.000000 0.400000
                  CHANNELS 3 Zrotation Xrotation Yrotation
                  JOINT RightHandRing2
                  {
                    OFFSET -2.600000 0.000000 0.000000
                    CHANNELS 3 Zrotation Xrotation Yrotation
                    JOINT RightHandRing3
                    {
                      OFFSET -1.600000 0.000000 0.000000
                      CHANNELS 3 Zrotation Xrotation Yrotation
                      End Site
                      {
                        OFFSET -1.300000 0.000000 0.000000
                      }
                    }
                  }
                }
                JOINT RightHandPinky1
                {
                  OFFSET -6.500000 -2.000000 0.500000
                  CHANNELS 3 Zrotation Xrotation Yrotation
                  JOINT RightHandPinky2
                  {
                    OFFSET -1.900000 0.000000 0.000000
                    CHANNELS 3 Zrotation Xrotation Yrotation
                    JOINT RightHandPinky3
                    {
                      OFFSET -1.400000 0.000000 0.000000
                      CHANNELS 3 Zrotation Xrotation Yrotation
                      End Site
                      {
                        OFFSET -1.300000 0.000000 0.000000
                      }
                    }
                  }
                }
              }
            }
          }
        }
      }
    }
  }
  JOINT LeftUpLeg
  {
    OFFSET 10.000000 -5.000000 0.000000
    CHANNELS 3 Zrotation Xrotation Yrotation
    JOINT LeftLeg
    {
      OFFSET 0.000000 -42.000000 0.000000
      CHANNELS 3 Zrotation Xrotation Yrotation
      JOINT LeftFoot
      {
        OFFSET 0.000000 -42.000000 4.000000
        CHANNELS 3 Zrotation Xrotation Yrotation
        End Site
        {
          OFFSET 0.000000 0.000000 12.000000
        }
      }
    }
  }
  JOINT RightUpLeg
  {
    OFFSET -10.000000 -5.000000 0.000000
    CHANNELS 3 Zrotation Xrotation Yrotation
    JOINT RightLeg
    {
      OFFSET 0.000000 -42.000000 0.000000
      CHANNELS 3 Zrotation Xrotation Yrotation
      JOINT RightFoot
      {
        OFFSET 0.000000 -42.000000 4.000000
        CHANNELS 3 Zrotation Xrotation Yrotation
        End Site
        {
          OFFSET 0.000000 0.000000 12.000000
        }
      }
    }
  }
}
MOTION
Frames: 10
Frame Time: 0.033333
0.0000 95.0000 0.0000 0.0000 0.0000 0.0000 0.0000 0.0000 0.0000 0.0000 0.0000 0.0000 0.0000 0.0000 0.0000 0.0000 0.0000 0.0000 0.0000 0.0000 0.0000 0.0000 0.0000 0.0000 -16.5028 -3.5626 -24.2076 80.7555 27.8751 -3.2248 -377.8832 19.0779 18.7194 58.9275 -13.7472 -10.5669 45.2188 0.0000 0.0000 9.9186 0.0000 0.0000 -55.0745 -7.3315 -31.1500 68.4633 0.0000 0.0000 12.0950 0.0000 0.0000 -61.4173 -24.4479 -404.8505 52.9625 0.0000 0.0000 14.6140 0.0000 0.0000 -62.9922 -28.4697 -399.6223 51.3105 0.0000 0.0000 15.9573 0.0000 0.0000 -58.8037 -24.2938 -29.0299 57.3597 0.0000 0.0000 13.9154 0.0000 0.0000 0.0000 0.0000 0.0000 30.0826 -10.9613 39.2987 -75.3837 41.1484 -1.1127 -91.1141 36.8059 -435.3449 -35.9567 -5.8444 -6.8318 43.3906 0.0000 0.0000 37.3932 0.0000 0.0000 -105.9480 11.0304 10.1535 39.5498 0.0000 0.0000 52.4846 0.0000 0.0000 -125.1706 12.1606 11.0966 41.5810 0.0000 0.0000 84.2662 0.0000 0.0000 224.7051 15.3177 15.8337 52.9749 0.0000 0.0000 90.0000 0.0000 0.0000 215.3020 19.3800 23.1365 55.2540 0.0000 0.0000 90.0000 0.0000 0.0000 0.0000 0.0000 0.0000 0.0000 0.0000 0.0000 0.0000 0.0000 0.0000 0.0000 0.0000 0.0000 0.0000 0.0000 0.0000 0.0000 0.0000 0.0000
0.0000 95.0000 0.0000 0.0000 0.0000 0.0000 0.0000 0.0000 0.0000 0.0000 0.0000 0.0000 0.0000 0.0000 0.0000 0.0000 0.0000 0.0000 0.0000 0.0000 0.0000 0.0000 0.0000 0.0000 -24.6516 -5.2146 -23.5442 62.5626 35.7984 -18.1968 -456.8584 42.6290 -61.5361 45.2292 -21.7679 -48.5642 37.1268 0.0000 0.0000 9.6514 0.0000 0.0000 -9.6352 5.3599 -49.2126 19.6282 0.0000 0.0000 4.2485 0.0000 0.0000 6.9992 4.2336 -427.0684 45.2965 0.0000 0.0000 49.5227 0.0000 0.0000 12.7493 -2.9369 -430.9982 54.1253 0.0000 0.0000 48.9499 0.0000 0.0000 20.2372 -11.0017 -71.6024 50.1764 0.0000 0.0000 52.5309 0.0000 0.0000 0.0000 0.0000 0.0000 39.8319 -13.4123 35.9599 -59.0804 45.4682 11.2940 -185.2308 6.5132 -514.2245 -78.0949 -17.8964 -44.4072 25.3848 0.0000 0.0000 4.8882 0.0000 0.0000 -67.2052 -18.8388 -15.4277 15.4987 0.0000 0.0000 20.5257 0.0000 0.0000 -80.4217 -21.3461 -20.3633 7.8539 0.0000 0.0000 90.0000 0.0000 0.0000 273.3196 -22.6424 -24.0814 29.5667 0.0000 0.0000 90.0000 0.0000 0.0000 265.1335 -23.6599 -27.6093 23.4596 0.0000 0.0000 90.0000 0.0000 0.0000 0.0000 0.0000 0.0000 0.0000 0.0000 0.0000 0.0000 0.0000 0.0000 0.0000 0.0000 0.0000 0.0000 0.0000 0.0000 0.0000 0.0000 0.0000
0.0000 95.0000 0.0000 0.0000 0.0000 0.0000 0.0000 0.0000 0.0000 0.0000 0.0000 0.0000 0.0000 0.0000 0.0000 0.0000 0.0000 0.0000 0.0000 0.0000 0.0000 0.0000 0.0000 0.0000 -30.1118 -6.4064 -23.5055 37.1139 33.6113 -32.3063 -472.3558 17.6734 -98.6152 57.2774 -14.0150 -13.5295 26.8712 0.0000 0.0000 11.9274 0.0000 0.0000 3.2853 3.7163 -18.2519 5.6759 0.0000 0.0000 6.8294 0.0000 0.0000 27.3302 4.6324 -383.6626 84.1323 0.0000 0.0000 73.0812 0.0000 0.0000 35.6872 2.7262 -386.9173 98.4169 0.0000 0.0000 62.5826 0.0000 0.0000 45.5890 -0.3582 -28.6430 73.4389 0.0000 0.0000 84.6731 0.0000 0.0000 0.0000 0.0000 0.0000 45.0014 -14.0517 33.1380 -42.6699 43.5022 21.6666 -262.5210 -26.7830 -493.8236 -30.9021 11.8204 -41.8222 16.4651 0.0000 0.0000 2.7370 0.0000 0.0000 9.3102 -2.1774 -25.5804 1.5914 0.0000 0.0000 9.4682 0.0000 0.0000 -1.0897 -0.3897 -34.5848 44.0653 0.0000 0.0000 90.0000 0.0000 0.0000 353.3795 2.8946 -37.5850 70.4328 0.0000 0.0000 85.4249 0.0000 0.0000 345.3616 6.1995 -39.6782 64.3893 0.0000 0.0000 80.2299 0.0000 0.0000 0.0000 0.0000 0.0000 0.0000 0.0000 0.0000 0.0000 0.0000 0.0000 0.0000 0.0000 0.0000 0.0000 0.0000 0.0000 0.0000 0.0000 0.0000
0.0000 95.0000 0.0000 0.0000 0.0000 0.0000 0.0000 0.0000 0.0000 0.0000 0.0000 0.0000 0.0000 0.0000 0.0000 0.0000 0.0000 0.0000 0.0000 0.0000 0.0000 0.0000 0.0000 0.0000 -34.4481 -7.7755 -24.7287 16.6563 26.6276 -39.4495 -509.0675 16.2585 -115.4320 68.7583 -14.4133 -7.2116 60.8567 0.0000 0.0000 51.2469 0.0000 0.0000 4.5988 1.8225 -9.1039 3.3317 0.0000 0.0000 5.8299 0.0000 0.0000 26.5997 1.4660 -370.9680 68.3960 0.0000 0.0000 89.4692 0.0000 0.0000 35.4872 0.3788 -373.6908 65.7552 0.0000 0.0000 88.7439 0.0000 0.0000 42.8248 -1.9719 -14.4555 58.1777 0.0000 0.0000 90.0000 0.0000 0.0000 0.0000 0.0000 0.0000 49.9965 -14.7189 30.9657 -28.8665 40.3738 28.9852 -216.0391 -10.1755 -444.3787 -41.4076 -4.5461 -15.7053 21.3281 0.0000 0.0000 17.4897 0.0000 0.0000 -36.0651 -3.8848 -3.8511 52.1662 0.0000 0.0000 90.0000 0.0000 0.0000 -46.4628 -3.4368 -3.2240 91.5539 0.0000 0.0000 66.2679 0.0000 0.0000 309.4399 -4.5993 -5.5667 88.0460 0.0000 0.0000 69.0533 0.0000 0.0000 306.9194 -5.5616 -10.2979 14.9234 0.0000 0.0000 13.1177 0.0000 0.0000 0.0000 0.0000 0.0000 0.0000 0.0000 0.0000 0.0000 0.0000 0.0000 0.0000 0.0000 0.0000 0.0000 0.0000 0.0000 0.0000 0.0000 0.0000
0.0000 95.0000 0.0000 0.0000 0.0000 0.0000 0.0000 0.0000 0.0000 0.0000 0.0000 0.0000 0.0000 0.0000 0.0000 0.0000 0.0000 0.0000 0.0000 0.0000 0.0000 0.0000 0.0000 0.0000 -38.8784 -8.2743 -23.1651 9.8411 25.4666 -42.7408 -537.9643 5.4245 -167.8025 -7.8772 7.2397 5.3993 68.6932 0.0000 0.0000 24.4386 0.0000 0.0000 32.3815 -11.4181 19.4026 32.4358 0.0000 0.0000 23.6332 0.0000 0.0000 51.5702 -10.9280 -342.3722 87.6570 0.0000 0.0000 28.6745 0.0000 0.0000 57.0044 -11.0897 -339.4455 110.0000 0.0000 0.0000 22.4196 0.0000 0.0000 73.4569 -13.0561 21.1021 110.0000 0.0000 0.0000 12.4516 0.0000 0.0000 0.0000 0.0000 0.0000 56.6175 -14.2416 26.1151 -27.6054 45.9378 33.8164 -219.1740 -16.5833 -448.4988 -39.7024 -2.6003 -19.6872 20.8518 0.0000 0.0000 15.7710 0.0000 0.0000 -27.5027 -4.3163 -6.6510 24.2754 0.0000 0.0000 90.0000 0.0000 0.0000 -40.8984 -4.2784 -6.6694 105.7651 0.0000 0.0000 58.7849 0.0000 0.0000 314.1618 -5.0629 -9.2548 106.6675 0.0000 0.0000 56.8470 0.0000 0.0000 311.2584 -5.4927 -15.1459 36.2644 0.0000 0.0000 63.8674 0.0000 0.0000 0.0000 0.0000 0.0000 0.0000 0.0000 0.0000 0.0000 0.0000 0.0000 0.0000 0.0000 0.0000 0.0000 0.0000 0.0000 0.0000 0.0000 0.0000
0.0000 95.0000 0.0000 0.0000 0.0000 0.0000 0.0000 0.0000 0.0000 0.0000 0.0000 0.0000 0.0000 0.0000 0.0000 0.0000 0.0000 0.0000 0.0000 0.0000 0.0000 0.0000 0.0000 0.0000 -44.5959 -8.6241 -20.8369 9.6439 34.8203 -52.3091 -580.0267 -14.0910 -218.3704 20.0628 6.4943 20.8901 25.8102 0.0000 0.0000 24.5008 0.0000 0.0000 -0.1776 -5.6929 30.5246 50.4760 0.0000 0.0000 10.8029 0.0000 0.0000 20.7600 -9.5148 -315.9032 26.6067 0.0000 0.0000 35.0187 0.0000 0.0000 27.2614 -6.9010 -310.2600 36.5578 0.0000 0.0000 77.1985 0.0000 0.0000 28.5465 1.1002 57.9545 50.6442 0.0000 0.0000 62.3772 0.0000 0.0000 0.0000 0.0000 0.0000 60.9100 -13.9647 23.5318 -26.3210 53.4181 39.9414 -219.1050 -19.5740 -456.9321 -37.7419 -0.2572 -23.8918 20.4447 0.0000 0.0000 14.3282 0.0000 0.0000 -17.0894 -3.9591 -9.1816 7.0385 0.0000 0.0000 24.6820 0.0000 0.0000 -35.5272 -4.8692 -10.3480 110.0000 0.0000 0.0000 49.7481 0.0000 0.0000 318.9162 -5.2418 -13.0671 110.0000 0.0000 0.0000 44.0215 0.0000 0.0000 315.7513 -5.0108 -19.9241 88.0517 0.0000 0.0000 65.4964 0.0000 0.0000 0.0000 0.0000 0.0000 0.0000 0.0000 0.0000 0.0000 0.0000 0.0000 0.0000 0.0000 0.0000 0.0000 0.0000 0.0000 0.0000 0.0000 0.0000
0.0000 95.0000 0.0000 0.0000 0.0000 0.0000 0.0000 0.0000 0.0000 0.0000 0.0000 0.0000 0.0000 0.0000 0.0000 0.0000 0.0000 0.0000 0.0000 0.0000 0.0000 0.0000 0.0000 0.0000 -48.1166 -8.8885 -19.7514 -0.4498 45.7556 -75.4530 -636.2603 -45.0254 -146.2275 33.2791 20.2027 59.5942 29.1852 0.0000 0.0000 15.8060 0.0000 0.0000 -5.0135 -17.9990 96.1141 30.4077 0.0000 0.0000 16.3223 0.0000 0.0000 -2.3795 3.6955 -250.3153 22.9324 0.0000 0.0000 26.7451 0.0000 0.0000 6.2790 15.2878 -248.1412 27.5068 0.0000 0.0000 28.8413 0.0000 0.0000 13.5742 31.5454 110.2618 28.1406 0.0000 0.0000 41.7318 0.0000 0.0000 0.0000 0.0000 0.0000 62.7308 -14.6317 23.7869 -21.2044 61.2729 49.5591 -218.3779 -21.7590 -471.6646 -34.5514 4.0366 -30.5509 19.9346 0.0000 0.0000 12.5799 0.0000 0.0000 1.8979 -1.9539 -12.2777 5.7256 0.0000 0.0000 3.6540 0.0000 0.0000 -27.8265 -5.3017 -16.4012 110.0000 0.0000 0.0000 35.8019 0.0000 0.0000 325.9777 -4.9976 -19.1627 110.0000 0.0000 0.0000 28.5605 0.0000 0.0000 322.5076 -3.5607 -27.1312 110.0000 0.0000 0.0000 22.0556 0.0000 0.0000 0.0000 0.0000 0.0000 0.0000 0.0000 0.0000 0.0000 0.0000 0.0000 0.0000 0.0000 0.0000 0.0000 0.0000 0.0000 0.0000 0.0000 0.0000
0.0000 95.0000 0.0000 0.0000 0.0000 0.0000 0.0000 0.0000 0.0000 0.0000 0.0000 0.0000 0.0000 0.0000 0.0000 0.0000 0.0000 0.0000 0.0000 0.0000 0.0000 0.0000 0.0000 0.0000 -50.8999 -9.2773 -19.3507 -12.7385 54.4499 -98.3022 -623.3822 -38.2580 -117.5065 22.8239 35.2250 65.0351 25.5530 0.0000 0.0000 35.7913 0.0000 0.0000 -12.9437 -16.5836 128.0343 13.7152 0.0000 0.0000 49.5050 0.0000 0.0000 -4.6157 10.7861 -231.0072 24.9684 0.0000 0.0000 90.0000 0.0000 0.0000 2.1791 29.4151 -234.6752 31.3077 0.0000 0.0000 90.0000 0.0000 0.0000 5.5985 52.0752 118.6503 27.5246 0.0000 0.0000 90.0000 0.0000 0.0000 0.0000 0.0000 0.0000 64.1426 -15.0782 23.8527 -15.9663 68.9905 59.7093 -206.9601 -17.6178 -479.4552 -39.2612 2.0579 -31.9616 20.4716 0.0000 0.0000 3.8875 0.0000 0.0000 0.5269 -1.5414 -8.7926 6.7918 0.0000 0.0000 6.3756 0.0000 0.0000 -35.4107 -7.2760 -17.7554 93.2375 0.0000 0.0000 71.1291 0.0000 0.0000 315.8550 -7.9405 -21.3088 110.0000 0.0000 0.0000 38.1671 0.0000 0.0000 308.8759 -8.2193 -29.0481 110.0000 0.0000 0.0000 26.3878 0.0000 0.0000 0.0000 0.0000 0.0000 0.0000 0.0000 0.0000 0.0000 0.0000 0.0000 0.0000 0.0000 0.0000 0.0000 0.0000 0.0000 0.0000 0.0000 0.0000
0.0000 95.0000 0.0000 0.0000 0.0000 0.0000 0.0000 0.0000 0.0000 0.0000 0.0000 0.0000 0.0000 0.0000 0.0000 0.0000 0.0000 0.0000 0.0000 0.0000 0.0000 0.0000 0.0000 0.0000 -52.3302 -9.4920 -19.1831 -24.7555 58.1456 -117.0412 -608.9456 -41.8302 -120.1318 27.2173 28.1859 62.2485 32.9241 0.0000 0.0000 40.2851 0.0000 0.0000 -6.6416 -27.1325 122.6657 19.2811 0.0000 0.0000 76.8522 0.0000 0.0000 1.6048 -3.5438 -233.4873 21.2922 0.0000 0.0000 90.0000 0.0000 0.0000 9.1385 14.6299 -233.8112 26.8681 0.0000 0.0000 90.0000 0.0000 0.0000 14.7996 39.9186 124.0858 23.3192 0.0000 0.0000 90.0000 0.0000 0.0000 0.0000 0.0000 0.0000 64.5644 -15.4555 24.2461 -9.2365 72.9460 69.0390 -204.3443 -16.1645 -487.6248 -40.9925 2.0659 -34.5302 20.6619 0.0000 0.0000 1.8637 0.0000 0.0000 -1.7071 -2.6399 -12.8681 8.5053 0.0000 0.0000 6.7060 0.0000 0.0000 -36.7013 -8.6052 -20.7872 71.1876 0.0000 0.0000 88.9529 0.0000 0.0000 315.1468 -8.9454 -24.3148 110.0000 0.0000 0.0000 39.9791 0.0000 0.0000 309.1737 -8.7724 -33.0174 110.0000 0.0000 0.0000 27.9884 0.0000 0.0000 0.0000 0.0000 0.0000 0.0000 0.0000 0.0000 0.0000 0.0000 0.0000 0.0000 0.0000 0.0000 0.0000 0.0000 0.0000 0.0000 0.0000 0.0000
0.0000 95.0000 0.0000 0.0000 0.0000 0.0000 0.0000 0.0000 0.0000 0.0000 0.0000 0.0000 0.0000 0.0000 0.0000 0.0000 0.0000 0.0000 0.0000 0.0000 0.0000 0.0000 0.0000 0.0000 -53.3691 -9.3565 -18.4950 -32.7933 58.6540 -128.6349 -612.0845 -40.4988 -116.0658 24.7950 29.3364 60.4688 35.0587 0.0000 0.0000 43.9997 0.0000 0.0000 -12.1687 -16.8560 124.5314 18.1610 0.0000 0.0000 24.6342 0.0000 0.0000 -3.1669 7.5589 -230.1867 29.4867 0.0000 0.0000 90.0000 0.0000 0.0000 3.5826 27.8319 -232.4764 37.7810 0.0000 0.0000 90.0000 0.0000 0.0000 7.2133 52.0125 121.3341 33.0123 0.0000 0.0000 90.0000 0.0000 0.0000 0.0000 0.0000 0.0000 64.9241 -15.3559 23.9306 -2.8028 75.1469 77.4249 -202.0414 -13.6810 -490.0872 -42.4266 1.5141 -35.2676 23.7882 0.0000 0.0000 6.0861 0.0000 0.0000 -5.7359 -4.8203 -19.1430 13.2906 0.0000 0.0000 6.4104 0.0000 0.0000 -40.2438 -9.9008 -21.8304 108.7883 0.0000 0.0000 61.8506 0.0000 0.0000 311.8030 -10.1442 -25.0362 110.0000 0.0000 0.0000 30.3664 0.0000 0.0000 306.0632 -10.0471 -33.4763 110.0000 0.0000 0.0000 25.4806 0.0000 0.0000 0.0000 0.0000 0.0000 0.0000 0.0000 0.0000 0.0000 0.0000 0.0000 0.0000 0.0000 0.0000 0.0000 0.0000 0.0000 0.0000 0.0000 0.0000
